<svg xmlns="http://www.w3.org/2000/svg" width="1240" height="1240" viewBox="0 0 1240 1240">
  <defs>
    <linearGradient id="bg" x1="0" y1="0" x2="1" y2="1">
      <stop offset="0%" stop-color="#1a1a2e"/>
      <stop offset="100%" stop-color="#0f0f1a"/>
    </linearGradient>
    <linearGradient id="note" x1="0" y1="0" x2="1" y2="1">
      <stop offset="0%" stop-color="#6366f1"/>
      <stop offset="100%" stop-color="#ec4899"/>
    </linearGradient>
  </defs>
  <rect width="1240" height="1240" rx="280" fill="url(#bg)"/>
  <g transform="translate(620,620)">
    <!-- bingo grid background hint -->
    <rect x="-240" y="-240" width="480" height="480" rx="80" fill="none" stroke="url(#note)" stroke-width="24" opacity="0.25"/>
    <line x1="-80" y1="-240" x2="-80" y2="240" stroke="url(#note)" stroke-width="16" opacity="0.18"/>
    <line x1="80" y1="-240" x2="80" y2="240" stroke="url(#note)" stroke-width="16" opacity="0.18"/>
    <line x1="-240" y1="-80" x2="240" y2="-80" stroke="url(#note)" stroke-width="16" opacity="0.18"/>
    <line x1="-240" y1="80" x2="240" y2="80" stroke="url(#note)" stroke-width="16" opacity="0.18"/>
    <!-- music note -->
    <g transform="translate(-10, 20)">
      <path d="M-120 -140 C-120 -220 -20 -240 40 -200 L40 40 C40 90 80 110 120 110 C170 110 200 70 200 20 C200 -40 150 -70 100 -60 L100 -260 C100 -290 70 -300 40 -280 C-60 -220 -200 -170 -200 -60 C-200 30 -120 30 -120 -40 Z" fill="url(#note)"/>
      <ellipse cx="120" cy="20" rx="50" ry="40" fill="url(#note)" opacity="0.9"/>
    </g>
  </g>
</svg>